<svg xmlns="http://www.w3.org/2000/svg" viewBox="0 0 138.6 140"><title>covid-logo2</title><g id="f97de93f-a861-45c6-8b77-9c8e362da0f8" data-name="Layer 2"><g id="b3f7c934-80f5-40ab-a51c-11df238888df" data-name="Layer 1"><path d="M78.42,8.89a8.88,8.88,0,0,1-4.35,7.65V29.39c-.32,0-.63-.07-.95-.09a2.22,2.22,0,0,0-.37,0c-.27,0-.55-.05-.82-.06l-.41,0q-.42,0-.84,0l-1.15,0c-.8,0-1.6,0-2.39.07l-.57,0c-.53,0-1.06.08-1.58.14V16.54a8.89,8.89,0,0,1-.07-15.25l.3-.18.45-.23.27-.12.53-.22a4.75,4.75,0,0,1,.64-.2l.2-.06a6.19,6.19,0,0,1,.62-.13h0c.21,0,.43-.07.65-.09h.12a6.51,6.51,0,0,1,.77,0h0a6.62,6.62,0,0,1,.77,0c.26,0,.53.06.79.1s.54.11.8.18.43.12.64.2l.06,0L73,.7s0,0,0,0c.26.11.5.23.74.36,0,0,0,0,0,0A8.9,8.9,0,0,1,78.42,8.89Z" style="fill:#fff;opacity:0.30000000000000004"/><path d="M57.72,30.84a39.52,39.52,0,0,0-4.32,1.54l-1.28-3.51a4.5,4.5,0,1,1,4.31-1.57Z" style="fill:#fff;opacity:0.30000000000000004"/><path d="M45,37.15l-.18.14q-.51.36-1,.75l-.92.74c-.51.42-1,.85-1.48,1.3L39,37.26a4.53,4.53,0,1,1,3.54-3Z" style="fill:#fff;opacity:0.30000000000000004"/><path d="M40.92,48.12l.13.08-4.62-2.67c-.26.34-.51.68-.76,1l-.73,1c-.24.36-.47.72-.7,1.08-.12.19-.24.38-.35.57-.55.91-1.07,1.84-1.54,2.79l-.36.72-.33.71c-.11.23-.22.47-.31.71a.72.72,0,0,0-.09.2L16.74,46a11,11,0,1,1,.12-19.13c3.49,2,4.83,6.42,4.88,10.17l14.69,8.48Z" style="fill:#fff;opacity:0.30000000000000004"/><path d="M29.24,60.26c0,.06,0,.13,0,.19s-.09.34-.13.51-.1.4-.14.6-.15.66-.21,1c-.1.5-.19,1-.27,1.52s-.13.84-.18,1.26a0,0,0,0,0,0,0L24,64.6a5.07,5.07,0,1,1,.9-5.11Z" style="fill:#fff;opacity:0.30000000000000004"/><path d="M29.36,81.7l-11.27,2-.42.07A8.89,8.89,0,0,1,.78,83a2.59,2.59,0,0,1-.09-.4,2.74,2.74,0,0,1-.09-.39,8.89,8.89,0,0,1,15.49-7.35L28,72.72c0,.37,0,.74.07,1.1l0,.42c.05.67.12,1.33.21,2,0,.36.09.71.15,1.06s.11.68.17,1C28.8,79.45,29.06,80.58,29.36,81.7Z" style="fill:#fff;opacity:0.30000000000000004"/><path d="M34.68,93.51,30.19,96.1A5.75,5.75,0,1,1,27.25,91l4.57-2.64c.2.45.42.89.65,1.32s.45.87.69,1.3.49.85.74,1.27S34.41,93.1,34.68,93.51Z" style="fill:#fff;opacity:0.30000000000000004"/><path d="M38.64,113.88A8.88,8.88,0,1,1,28.79,108h0a8.85,8.85,0,0,1,2.86,0l7.44-8.87a35,35,0,0,0,3.23,3.1c.39.34.79.67,1.19,1,.2.17.41.33.62.49s.46.36.7.53l.94.67.2.14Z" style="fill:#fff;opacity:0.30000000000000004"/><path d="M56.09,116.11a6.15,6.15,0,1,1-5.9-2.14l2-5.39c.42.2.84.38,1.26.55l.85.35,1,.38,1.27.44c.5.17,1,.32,1.51.46Z" style="fill:#fff;opacity:0.30000000000000004"/><path d="M78.42,131.11A8.89,8.89,0,1,1,65,123.46V112.13q.49.06,1,.09l.23,0c.52.05,1,.08,1.57.1h0l.56,0,1.15,0,1.15,0,.57,0c.67,0,1.34-.07,2-.13l.82-.08v11.33A8.88,8.88,0,0,1,78.42,131.11Z" style="fill:#fff;opacity:0.30000000000000004"/><path d="M89.92,126A6.21,6.21,0,0,1,83,116.25l-2-5.48.59-.17.86-.27c.37-.12.73-.24,1.09-.38l.83-.31c.41-.14.82-.31,1.22-.48s.9-.39,1.35-.6l2,5.52a6.21,6.21,0,0,1,1,11.94Z" style="fill:#fff;opacity:0.30000000000000004"/><path d="M114.53,123.62a8.89,8.89,0,0,1-14.11-9.74l-7.36-8.79c.35-.24.69-.48,1-.74.14-.09.27-.19.4-.29.48-.35.94-.71,1.39-1.09q.36-.28.72-.6h0l.68-.59c.56-.5,1.11-1,1.64-1.55.31-.31.62-.62.92-1a.76.76,0,0,0,.09-.09l7.44,8.86a8.88,8.88,0,0,1,2.91,0h0a8.9,8.9,0,0,1,4.23,15.58Z" style="fill:#fff;opacity:0.30000000000000004"/><path d="M113.53,95.4a3.93,3.93,0,0,1-7.34-1.92l-1.3-.75c.23-.38.46-.76.68-1.14s.39-.69.58-1,.47-.88.7-1.33l1.35.78a3.94,3.94,0,0,1,5.33,5.4Z" style="fill:#fff;opacity:0.30000000000000004"/><path d="M138.47,82.16a8.89,8.89,0,0,1-17.07,1.6L109.7,81.7c.1-.36.19-.72.28-1.08.19-.77.35-1.54.49-2.32.06-.33.11-.67.17-1s.11-.75.16-1.13.12-1,.16-1.48c0-.24.06-.49.07-.74s.06-.81.08-1.22L123,74.81a8.89,8.89,0,0,1,15.5,7.35Z" style="fill:#fff;opacity:0.30000000000000004"/><path d="M121.75,66.61a5.74,5.74,0,0,1-5.34-1.91l-5.57,1c-.06-.44-.11-.88-.18-1.31s-.16-1-.26-1.52a1.18,1.18,0,0,0,0-.2c-.09-.51-.21-1-.33-1.52s-.19-.8-.3-1.19l5.67-1a5.73,5.73,0,1,1,6.35,7.67Z" style="fill:#fff;opacity:0.30000000000000004"/><path d="M130.9,42.23a0,0,0,0,1,0,0A8.89,8.89,0,0,1,118.1,47.2l-10.73,6.2c-.17-.38-.35-.76-.54-1.13s-.34-.67-.51-1c-.29-.53-.58-1.05-.89-1.57s-.45-.76-.69-1.14-.3-.47-.46-.7a4.81,4.81,0,0,0-.27-.41l-.65-.93c-.22-.31-.44-.61-.67-.91l10.87-6.27v-.07a8.89,8.89,0,1,1,17.34,3Z" style="fill:#fff;opacity:0.30000000000000004"/><path d="M109.9,32.32a6.7,6.7,0,0,1-6.21,2.3l-5.22,6.22-.56-.53L97,39.46l-.34-.3c-.3-.26-.61-.52-.93-.77s-.49-.39-.74-.58l-.74-.57c-.34-.25-.7-.5-1-.74l5.27-6.28a6.7,6.7,0,1,1,11.46,2.1Z" style="fill:#fff;opacity:0.30000000000000004"/><path d="M88.21,28.59a3.37,3.37,0,0,1-2.56,2.17l-.51,1.4c-.28-.11-.57-.23-.86-.33l-.77-.28a2.19,2.19,0,0,0-.33-.12l-.9-.3-.4-.13.52-1.42a3.39,3.39,0,1,1,5.81-1Z" style="fill:#fff;opacity:0.30000000000000004"/><path d="M111.15,70.76c0,.66,0,1.31,0,1.95h0L106,71.81l-.6-.11-1.26-.22A3.12,3.12,0,0,0,100.46,74l-.75,4.25a3.13,3.13,0,0,0,2.54,3.63l7,1.24c-.4,1.25-.85,2.48-1.34,3.68l-6.19-3.57a3.12,3.12,0,0,0-4.27,1.15l-2.17,3.74a3.12,3.12,0,0,0,1.15,4.28L102.63,96c-.78,1-1.62,2-2.5,3l-4.58-5.46a3.15,3.15,0,0,0-4.42-.39l-3.31,2.78a3.14,3.14,0,0,0-.39,4.42L92,105.79c-1.09.71-2.22,1.36-3.38,2l-2.43-6.7a3.14,3.14,0,0,0-4-1.88l-4.07,1.48a3.14,3.14,0,0,0-1.87,4l2.43,6.69q-1.89.44-3.84.69v-7.13a3.13,3.13,0,0,0-3.13-3.14H67.37a3.13,3.13,0,0,0-3.13,3.14v7.13c-1.31-.17-2.59-.4-3.85-.69l2.44-6.69a3.14,3.14,0,0,0-1.88-4l-4.06-1.48a3.14,3.14,0,0,0-4,1.88l-2.44,6.7a38.91,38.91,0,0,1-3.37-2l4.58-5.46a3.14,3.14,0,0,0-.4-4.42l-3.31-2.78a3.14,3.14,0,0,0-4.41.39L38.94,99c-.88-1-1.72-2-2.51-3l6.17-3.57a3.12,3.12,0,0,0,1.14-4.28L41.58,84.4a3.14,3.14,0,0,0-4.28-1.15l-6.18,3.57c-.5-1.2-.95-2.43-1.34-3.68l7-1.24a3.12,3.12,0,0,0,2.54-3.63L38.6,74A3.12,3.12,0,0,0,35,71.48l-1.25.22-5.76,1h0c0-.64-.05-1.29-.05-1.95s0-1.31.05-2L35,70A3.13,3.13,0,0,0,38.6,67.5l.75-4.26a3.12,3.12,0,0,0-2.54-3.63l-7-1.24c.39-1.25.84-2.48,1.34-3.67l6.18,3.56a3.12,3.12,0,0,0,4.28-1.15l2.16-3.74a3.12,3.12,0,0,0-1.14-4.28l-1.55-.89-4.62-2.67c.2-.26.4-.52.62-.77.59-.77,1.23-1.51,1.89-2.22L43.52,48a3.13,3.13,0,0,0,4.41.39l3.31-2.78a3.14,3.14,0,0,0,.4-4.42l-4.58-5.45a36.49,36.49,0,0,1,3.37-2l2.44,6.69a3.14,3.14,0,0,0,4,1.88L61,40.86a3.13,3.13,0,0,0,1.88-4l-2.44-6.7a37.29,37.29,0,0,1,3.85-.68V36.6a3.13,3.13,0,0,0,3.13,3.13H71.7a3.13,3.13,0,0,0,3.13-3.13V29.47a37.58,37.58,0,0,1,3.84.68l-2.43,6.7a3.13,3.13,0,0,0,1.87,4l4.07,1.48a3.14,3.14,0,0,0,4-1.88l2.43-6.69a36.66,36.66,0,0,1,3.38,2l-4.58,5.45a3.14,3.14,0,0,0,.39,4.42l3.31,2.78A3.14,3.14,0,0,0,95.55,48l4.58-5.45a37.69,37.69,0,0,1,2.5,3l-6.16,3.56a3.13,3.13,0,0,0-1.15,4.28l2.17,3.74a3.11,3.11,0,0,0,4.27,1.15L108,54.7c.49,1.19.94,2.42,1.34,3.67l-7,1.24a3.13,3.13,0,0,0-2.54,3.63l.75,4.26A3.13,3.13,0,0,0,104.09,70l7-1.24C111.14,69.45,111.15,70.1,111.15,70.76Z" style="fill:#fff;opacity:0.7000000000000001"/><path d="M74.83,29.47V36.6a3.13,3.13,0,0,1-3.13,3.13H67.37a3.13,3.13,0,0,1-3.13-3.13V29.47l.75-.08c.52-.06,1.05-.11,1.58-.14l.57,0c.79-.05,1.59-.07,2.39-.07l1.15,0q.42,0,.84,0l.41,0c.27,0,.55,0,.82.06a2.22,2.22,0,0,1,.37,0c.32,0,.63.05.95.09Z" style="fill:#fff;opacity:0.6000000000000001"/><path d="M61,40.86l-4.06,1.48a3.14,3.14,0,0,1-4-1.88l-2.44-6.69c1-.5,2-1,3-1.39a39.52,39.52,0,0,1,4.32-1.54c.87-.26,1.76-.49,2.66-.69h0l2.44,6.7A3.13,3.13,0,0,1,61,40.86Z" style="fill:#fff;opacity:0.6000000000000001"/><path d="M51.24,45.6l-3.31,2.78A3.13,3.13,0,0,1,43.52,48l-4.58-5.45c.32-.35.64-.69,1-1l.45-.45c.34-.34.69-.68,1-1s1-.88,1.48-1.3l.92-.74q.48-.39,1-.75l.18-.14c.68-.49,1.37-1,2.08-1.42l4.58,5.45A3.14,3.14,0,0,1,51.24,45.6Z" style="fill:#fff;opacity:0.6000000000000001"/><path d="M43.74,53.37l-2.16,3.74a3.12,3.12,0,0,1-4.28,1.15L31.12,54.7c0-.1.09-.21.14-.31a.72.72,0,0,1,.09-.2c.09-.24.2-.48.31-.71l.33-.71.36-.72c.47-.95,1-1.88,1.54-2.79.11-.19.23-.38.35-.57.23-.36.46-.72.7-1.08l.73-1c.25-.35.5-.69.76-1l4.62,2.67,1.55.89A3.12,3.12,0,0,1,43.74,53.37Z" style="fill:#fff;opacity:0.6000000000000001"/><path d="M39.35,63.24,38.6,67.5A3.13,3.13,0,0,1,35,70L28,68.8l.06-1c0-.16,0-.33,0-.48.05-.64.12-1.28.2-1.92a0,0,0,0,1,0,0q.07-.63.18-1.26c.08-.51.17-1,.27-1.52q.09-.49.21-1c0-.2.09-.4.14-.6s.08-.34.13-.51,0-.13,0-.19q.26-1,.54-1.89l7,1.24A3.12,3.12,0,0,1,39.35,63.24Z" style="fill:#fff;opacity:0.6000000000000001"/><path d="M36.81,81.9l-7,1.24q-.23-.72-.42-1.44c-.3-1.12-.56-2.25-.77-3.4-.06-.33-.11-.67-.17-1s-.11-.7-.15-1.06c-.09-.66-.16-1.32-.21-2l0-.42c0-.36-.05-.73-.07-1.1l5.76-1L35,71.48A3.12,3.12,0,0,1,38.6,74l.75,4.25A3.12,3.12,0,0,1,36.81,81.9Z" style="fill:#fff;opacity:0.6000000000000001"/><polygon points="33.72 71.7 27.96 72.72 27.96 72.71 33.72 71.7" style="fill:#fff;opacity:0.6000000000000001"/><path d="M42.6,92.42,36.43,96c-.31-.4-.61-.81-.9-1.22s-.58-.83-.85-1.26-.53-.82-.78-1.24-.5-.84-.74-1.27-.47-.86-.69-1.3-.45-.87-.65-1.32c-.07-.12-.12-.25-.18-.38-.18-.39-.35-.78-.52-1.18l6.18-3.57a3.14,3.14,0,0,1,4.28,1.15l2.16,3.74A3.12,3.12,0,0,1,42.6,92.42Z" style="fill:#fff;opacity:0.6000000000000001"/><path d="M51.64,100.33l-4.58,5.46-1.05-.7-.2-.14-.94-.67c-.24-.17-.47-.35-.7-.53s-.42-.32-.62-.49c-.4-.32-.8-.65-1.19-1a35,35,0,0,1-3.23-3.1L38.94,99l4.58-5.46a3.14,3.14,0,0,1,4.41-.39l3.31,2.78A3.14,3.14,0,0,1,51.64,100.33Z" style="fill:#fff;opacity:0.6000000000000001"/><path d="M62.83,104.67l-2.44,6.69h0c-.79-.18-1.57-.37-2.34-.6-.51-.14-1-.29-1.51-.46l-1.27-.44-1-.38-.85-.35c-.42-.17-.84-.35-1.26-.55-.58-.26-1.15-.54-1.72-.83l2.44-6.7a3.14,3.14,0,0,1,4-1.88L61,100.65A3.14,3.14,0,0,1,62.83,104.67Z" style="fill:#fff;opacity:0.6000000000000001"/><path d="M74.83,104.92v7.13l-.76.08-.82.08c-.66.06-1.33.11-2,.13l-.57,0-1.15,0-1.15,0-.56,0h0c-.53,0-1,0-1.57-.1l-.23,0q-.49,0-1-.09l-.75-.08v-7.13a3.13,3.13,0,0,1,3.13-3.14H71.7A3.13,3.13,0,0,1,74.83,104.92Z" style="fill:#fff;opacity:0.6000000000000001"/><path d="M88.63,107.75c-.56.29-1.12.56-1.69.81s-.9.41-1.35.6-.81.34-1.22.48l-.83.31c-.36.14-.72.26-1.09.38l-.86.27-.59.17c-.76.22-1.54.42-2.32.59h0l-2.43-6.69a3.14,3.14,0,0,1,1.87-4l4.07-1.48a3.14,3.14,0,0,1,4,1.88Z" style="fill:#fff;opacity:0.6000000000000001"/><path d="M100.13,99l-.19.2a.76.76,0,0,1-.09.09c-.3.33-.61.64-.92,1-.53.54-1.08,1-1.64,1.55l-.68.59h0q-.36.31-.72.6c-.45.37-.92.74-1.39,1.09-.13.1-.26.2-.4.29-.34.26-.68.5-1,.74l-1,.7-4.58-5.46a3.14,3.14,0,0,1,.39-4.42l3.31-2.78a3.15,3.15,0,0,1,4.42.39Z" style="fill:#fff;opacity:0.6000000000000001"/><path d="M108,86.82c-.34.81-.71,1.61-1.1,2.4-.23.45-.46.89-.7,1.33s-.38.7-.58,1-.45.76-.68,1.14c-.7,1.12-1.46,2.21-2.26,3.26l-6.16-3.57a3.12,3.12,0,0,1-1.15-4.28l2.17-3.74a3.12,3.12,0,0,1,4.27-1.15Z" style="fill:#fff;opacity:0.6000000000000001"/><path d="M111.11,72.72c0,.41,0,.82-.08,1.22s0,.5-.07.74c0,.5-.1,1-.16,1.48s-.1.76-.16,1.13-.11.68-.17,1c-.14.78-.3,1.55-.49,2.32-.09.36-.18.72-.28,1.08s-.26,1-.41,1.44l-7-1.24a3.13,3.13,0,0,1-2.54-3.63l.75-4.25a3.12,3.12,0,0,1,3.63-2.54l1.26.22.6.11Z" style="fill:#fff;opacity:0.6000000000000001"/><polygon points="111.11 72.71 111.11 72.72 105.95 71.81 111.11 72.71" style="fill:#fff;opacity:0.6000000000000001"/><path d="M111.11,68.8l-7,1.24a3.13,3.13,0,0,1-3.63-2.54l-.75-4.26a3.13,3.13,0,0,1,2.54-3.63l7-1.24c.16.52.31,1,.44,1.57s.21.79.3,1.19.24,1,.33,1.52a1.18,1.18,0,0,1,0,.2c.1.5.19,1,.26,1.52s.12.87.18,1.31l.09.82a.69.69,0,0,1,0,.13C111,67.35,111.08,68.07,111.11,68.8Z" style="fill:#fff;opacity:0.6000000000000001"/><path d="M108,54.7l-6.19,3.56a3.11,3.11,0,0,1-4.27-1.15l-2.17-3.74a3.13,3.13,0,0,1,1.15-4.28l6.16-3.56.06.08c.23.3.45.6.67.91l.65.93a4.81,4.81,0,0,1,.27.41c.16.23.31.47.46.7s.47.76.69,1.14.6,1,.89,1.57c.17.33.35.67.51,1s.37.75.54,1.13S107.76,54.26,108,54.7Z" style="fill:#fff;opacity:0.6000000000000001"/><path d="M100.13,42.54,95.55,48a3.14,3.14,0,0,1-4.42.39L87.82,45.6a3.14,3.14,0,0,1-.39-4.42L92,35.73l1.16.77c.35.24.71.49,1,.74l.74.57c.25.19.5.38.74.58s.63.51.93.77l.34.3.94.85.56.53C99,41.39,99.59,42,100.13,42.54Z" style="fill:#fff;opacity:0.6000000000000001"/><path d="M88.63,33.77,86.2,40.46a3.14,3.14,0,0,1-4,1.88l-4.07-1.48a3.13,3.13,0,0,1-1.87-4l2.43-6.7h0l.76.18.75.19c.25.06.51.13.76.21l.75.22.18.05.4.13.9.3a2.19,2.19,0,0,1,.33.12l.77.28c.29.1.58.22.86.33l.89.38.66.29C87.35,33.13,88,33.44,88.63,33.77Z" style="fill:#fff;opacity:0.6000000000000001"/><circle cx="69.53" cy="8.98" r="8.98" style="fill:#fff;opacity:0.4"/><circle cx="10.83" cy="36.34" r="10.83" style="fill:#fff;opacity:0.4"/><circle cx="9.53" cy="80.98" r="8.98" style="fill:#fff;opacity:0.4"/><circle cx="29.53" cy="116.98" r="8.98" style="fill:#fff;opacity:0.4"/><circle cx="109.53" cy="116.98" r="8.98" style="fill:#fff;opacity:0.4"/><circle cx="122.53" cy="38.98" r="8.98" style="fill:#fff;opacity:0.4"/></g></g></svg>