<svg xmlns="http://www.w3.org/2000/svg" viewBox="0 0 65.49 68.1"><title>covid-logo</title><g id="ac40f7c4-5d61-4e37-833d-7e8b8e59c24a" data-name="Layer 2"><g id="aef1606a-a56c-4955-9c0b-e6c00e674951" data-name="Layer 1"><g style="opacity:0.6000000000000001"><polygon points="16.4 34.88 13.6 35.38 13.6 35.37 16.4 34.88" style="fill:#fff"/></g><g style="opacity:0.30000000000000004"><path d="M38.15,4.33A4.33,4.33,0,0,1,36,8.05V14.3l-.46-.05h-.18c-.13,0-.27,0-.4,0H33.82c-.39,0-.78,0-1.16,0l-.28,0c-.26,0-.51,0-.77.07V8.05a4.33,4.33,0,0,1,0-7.42l.15-.09.21-.11.14-.06.25-.11.31-.09.1,0L33,.07h0a1.65,1.65,0,0,1,.32,0h.06l.37,0h0l.38,0,.38.05A2.74,2.74,0,0,1,35,.16a2.8,2.8,0,0,1,.31.09h0l.19.08h0a2.42,2.42,0,0,1,.36.18s0,0,0,0A4.33,4.33,0,0,1,38.15,4.33Z" style="fill:#fff"/></g><g style="opacity:0.30000000000000004"><path d="M28.08,15a20.9,20.9,0,0,0-2.1.75L25.35,14a2.18,2.18,0,1,1,2.1-.76Z" style="fill:#fff"/></g><g style="opacity:0.30000000000000004"><path d="M21.88,18.07l-.09.07-.48.37q-.22.16-.45.36c-.25.2-.48.41-.72.63L19,18.13a2.21,2.21,0,1,1,1.72-1.45Z" style="fill:#fff"/></g><g style="opacity:0.30000000000000004"><path d="M17.72,22.15c-.13.16-.25.33-.37.5l-.35.51-.34.53c-.06.09-.12.18-.17.27-.27.45-.53.9-.75,1.36l-.18.35c-.05.11-.11.23-.16.35s-.11.23-.15.34a.42.42,0,0,0,0,.1L8.14,22.38a5.31,5.31,0,0,1-5.06.09l-.23-.12a5.36,5.36,0,0,1,1.48-9.86h0a5.38,5.38,0,0,1,3.86.59,4.94,4.94,0,0,1,2.19,3.37,1,1,0,0,1,0,.17,2.33,2.33,0,0,1,.06.35l0,.25a5.46,5.46,0,0,1,.05.8Z" style="fill:#fff"/></g><g style="opacity:0.30000000000000004"><path d="M14.22,29.31a.36.36,0,0,1,0,.1l-.06.25c0,.09-.05.19-.07.29s-.07.32-.1.48-.09.49-.13.74-.07.41-.09.61v0l-2.08-.37a2.47,2.47,0,1,1-1.45-4.05,2.52,2.52,0,0,1,1.89,1.56Z" style="fill:#fff"/></g><g style="opacity:0.30000000000000004"><path d="M14.28,39.74l-5.48,1-.21,0a4.32,4.32,0,0,1-8.21-.4,1.05,1.05,0,0,1,0-.19,1.62,1.62,0,0,1,0-.19,4.33,4.33,0,0,1,7.54-3.58l5.77-1,0,.53,0,.21c0,.32.06.64.1,1s0,.35.07.52l.09.49C14,38.65,14.13,39.2,14.28,39.74Z" style="fill:#fff"/></g><g style="opacity:0.30000000000000004"><path d="M16.87,45.49l-2.19,1.26a2.79,2.79,0,1,1-1.43-2.47L15.48,43c.09.22.2.44.31.65s.22.42.34.63l.36.62C16.61,45.09,16.74,45.29,16.87,45.49Z" style="fill:#fff"/></g><g style="opacity:0.30000000000000004"><path d="M18.8,55.4a4.32,4.32,0,1,1-7.4-1.35A4.26,4.26,0,0,1,14,52.56h0a4.32,4.32,0,0,1,1.39,0L19,48.24a17.2,17.2,0,0,0,1.57,1.51c.19.17.39.33.58.48a3.65,3.65,0,0,0,.31.24c.11.09.22.18.34.26l.45.32.1.07Z" style="fill:#fff"/></g><g style="opacity:0.30000000000000004"><path d="M27.28,56.48a3,3,0,1,1-2.87-1l1-2.62c.2.1.41.19.61.27l.41.17.49.18.62.22.73.22Z" style="fill:#fff"/></g><g style="opacity:0.30000000000000004"><path d="M38.15,63.78a4.33,4.33,0,1,1-6.54-3.72V54.55l.48,0h.12c.25,0,.5,0,.76,0h1.69c.32,0,.65,0,1-.06l.4,0v5.51A4.32,4.32,0,0,1,38.15,63.78Z" style="fill:#fff"/></g><g style="opacity:0.30000000000000004"><path d="M43.74,61.31a3,3,0,0,1-3.37-4.76l-1-2.66.29-.09.42-.13.53-.18a3.91,3.91,0,0,1,.41-.15l.59-.23.65-.3,1,2.69a3,3,0,0,1,2.27,1.94A3,3,0,0,1,43.74,61.31Z" style="fill:#fff"/></g><g style="opacity:0.30000000000000004"><path d="M42.91,13.91A1.64,1.64,0,0,1,41.66,15l-.24.69L41,15.48l-.37-.13a.58.58,0,0,0-.17-.06L40,15.14l-.19-.06.25-.69a1.62,1.62,0,0,1-.27-1.6,1.65,1.65,0,0,1,3.1,1.12Z" style="fill:#fff"/></g><g style="opacity:0.6000000000000001"><path d="M36.4,14.34v3.47a1.52,1.52,0,0,1-1.52,1.52H32.77a1.52,1.52,0,0,1-1.52-1.52V14.34l.36,0c.26,0,.51-.06.77-.07l.28,0c.38,0,.77,0,1.16,0H35c.13,0,.27,0,.4,0h.18l.46.05Z" style="fill:#fff"/></g><g style="opacity:0.6000000000000001"><path d="M29.65,19.88l-2,.72a1.53,1.53,0,0,1-2-.92l-1.19-3.25c.47-.24.95-.47,1.45-.68a20.9,20.9,0,0,1,2.1-.75c.42-.12.85-.24,1.29-.33h0l1.18,3.26A1.52,1.52,0,0,1,29.65,19.88Z" style="fill:#fff"/></g><g style="opacity:0.6000000000000001"><path d="M24.93,22.18l-1.62,1.36a1.52,1.52,0,0,1-2.14-.19l-2.23-2.66.47-.49.22-.22c.17-.16.34-.33.51-.48s.48-.43.72-.63.3-.25.45-.36l.48-.37.09-.07c.33-.24.67-.47,1-.69L25.12,20A1.53,1.53,0,0,1,24.93,22.18Z" style="fill:#fff"/></g><g style="opacity:0.6000000000000001"><path d="M21.28,26l-1.05,1.82a1.52,1.52,0,0,1-2.09.56l-3-1.73a1,1,0,0,1,.07-.15.42.42,0,0,1,0-.1c0-.11.1-.23.15-.34s.11-.24.16-.35l.18-.35c.22-.46.48-.91.75-1.36.05-.09.11-.18.17-.27l.34-.53.35-.51c.12-.17.24-.34.37-.5L20,23.45l.75.43A1.52,1.52,0,0,1,21.28,26Z" style="fill:#fff"/></g><g style="opacity:0.6000000000000001"><path d="M19.14,30.76l-.36,2.08A1.52,1.52,0,0,1,17,34.07l-3.41-.6,0-.51a1.79,1.79,0,0,1,0-.23c0-.31.06-.62.1-.93v0c0-.2.05-.41.09-.61s.08-.5.13-.74.06-.32.1-.48,0-.2.07-.29l.06-.25a.36.36,0,0,0,0-.1c.09-.31.17-.61.27-.91l3.42.6A1.51,1.51,0,0,1,19.14,30.76Z" style="fill:#fff"/></g><g style="opacity:0.6000000000000001"><path d="M17.91,39.84l-3.42.6c-.08-.23-.15-.46-.21-.7-.14-.54-.27-1.09-.37-1.65l-.09-.49c0-.17-.05-.34-.07-.52s-.08-.64-.1-1l0-.21,0-.53,2.8-.5.61-.11A1.53,1.53,0,0,1,18.78,36l.36,2.07A1.51,1.51,0,0,1,17.91,39.84Z" style="fill:#fff"/></g><g style="opacity:0.6000000000000001"><polygon points="16.4 34.88 13.6 35.38 13.6 35.37 16.4 34.88" style="fill:#fff"/></g><g style="opacity:0.6000000000000001"><path d="M20.72,45l-3,1.74-.44-.6c-.14-.2-.28-.4-.41-.61s-.26-.4-.38-.6l-.36-.62c-.12-.21-.23-.42-.34-.63s-.21-.43-.31-.65a1,1,0,0,1-.09-.18c-.09-.19-.17-.38-.25-.57l3-1.74a1.53,1.53,0,0,1,2.09.56l1.05,1.82A1.52,1.52,0,0,1,20.72,45Z" style="fill:#fff"/></g><g style="opacity:0.6000000000000001"><path d="M25.12,48.81l-2.23,2.65-.51-.34-.1-.07-.45-.32c-.12-.08-.23-.17-.34-.26a3.65,3.65,0,0,1-.31-.24q-.29-.23-.57-.48A17.31,17.31,0,0,1,19,48.24l-.09-.09,2.23-2.66a1.52,1.52,0,0,1,2.14-.19l1.62,1.36A1.53,1.53,0,0,1,25.12,48.81Z" style="fill:#fff"/></g><g style="opacity:0.6000000000000001"><path d="M30.56,50.92l-1.18,3.25h0c-.38-.08-.76-.18-1.14-.29l-.73-.22-.62-.22-.49-.18L26,53.09c-.2-.08-.41-.17-.61-.27l-.84-.4,1.19-3.26a1.53,1.53,0,0,1,2-.92l2,.72A1.53,1.53,0,0,1,30.56,50.92Z" style="fill:#fff"/></g><g style="opacity:0.6000000000000001"><path d="M36.4,51v3.47l-.37,0-.4,0c-.32,0-.64,0-1,.06H33c-.26,0-.51,0-.76,0H32.1l-.49,0-.36,0V51a1.52,1.52,0,0,1,1.52-1.53h2.11A1.52,1.52,0,0,1,36.4,51Z" style="fill:#fff"/></g><g style="opacity:0.6000000000000001"><path d="M43.12,52.42l-.82.39h0l-.65.3-.59.23a3.91,3.91,0,0,0-.41.15l-.53.18-.42.13-.29.09c-.37.11-.75.2-1.13.29l-1.18-3.26a1.54,1.54,0,0,1,.9-2l.6-.22,1.39-.5a1.55,1.55,0,0,1,2,.92l.48,1.35Z" style="fill:#fff"/></g><g style="opacity:0.6000000000000001"><path d="M43.12,16.43l-.7,1.9-.48,1.35a1.55,1.55,0,0,1-2,.92l-1.39-.5-.6-.22a1.53,1.53,0,0,1-.9-2l1.18-3.26.37.1.36.08.38.11.37.11.08,0,.19.06.44.15a.58.58,0,0,1,.17.06l.37.13.42.17.43.18.32.14C42.49,16.12,42.8,16.26,43.12,16.43Z" style="fill:#fff"/></g><g style="opacity:0.4"><circle cx="33.82" cy="4.37" r="4.37" style="fill:#fff"/></g><g style="opacity:0.4"><circle cx="5.27" cy="17.68" r="5.27" style="fill:#fff"/></g><g style="opacity:0.4"><circle cx="4.64" cy="39.39" r="4.37" style="fill:#fff"/></g><g style="opacity:0.4"><circle cx="14.36" cy="56.91" r="4.37" style="fill:#fff"/></g><path d="M44.34,41.6a.91.91,0,0,1-.65-.27.93.93,0,0,1,0-1.32,8.47,8.47,0,0,0,0-11.92A.93.93,0,0,1,45,26.78a10.32,10.32,0,0,1,0,14.55A.93.93,0,0,1,44.34,41.6Z" style="fill:#fff"/><path d="M51.39,44.7a.92.92,0,0,1-.66-.28.93.93,0,0,1,0-1.31,12.86,12.86,0,0,0,0-18.11.93.93,0,0,1,1.32-1.32,14.73,14.73,0,0,1,0,20.74A.94.94,0,0,1,51.39,44.7Z" style="fill:#fff"/><path d="M59,48.39a.93.93,0,0,1-.66-1.59,18.11,18.11,0,0,0,0-25.5A.93.93,0,0,1,59.7,20a20,20,0,0,1,0,28.13A.93.93,0,0,1,59,48.39Z" style="fill:#fff"/></g></g></svg>